<svg xmlns="http://www.w3.org/2000/svg" xml:space="preserve" fill-rule="evenodd" stroke-linejoin="round" stroke-miterlimit="2" clip-rule="evenodd" viewBox="0 0 1746 341">
  <g fill-rule="nonzero">
    <path fill="#004467" d="M0 280.946c11.317 7.037 33.958 13.158 55.987 13.158 52.93 0 78.017-28.758 78.017-62.108 0-29.675-17.133-47.729-52.929-61.188-27.538-10.708-39.467-18.054-39.467-33.962 0-12.238 10.096-24.779 33.959-24.779 19.275 0 33.654 5.812 41.304 9.787l8.871-30.287c-10.709-5.509-26.921-10.404-49.259-10.404-44.971 0-73.121 25.395-73.121 59.354 0 29.679 21.725 47.729 55.992 59.966 26.004 9.484 36.404 18.663 36.404 34.267 0 16.825-13.458 28.146-37.325 28.146-19.275 0-37.937-6.117-49.866-13.154L0 280.946ZM171.329 113.9v27.842h-21.112v28.146h21.112v70.062c0 19.579 3.671 33.35 11.929 41.917 7.038 7.646 18.359 12.237 32.434 12.237 11.625 0 21.72-1.837 27.229-3.979l-.613-28.454c-4.283 1.225-7.954 1.533-14.687 1.533-14.379 0-19.275-9.179-19.275-27.537v-65.779h35.796v-28.146h-35.796V103.5l-37.017 10.4Zm216.913 87.5c0-32.733-13.767-63.025-61.492-63.025-23.558 0-42.833 6.425-53.85 13.158l7.346 24.475c10.096-6.425 25.391-11.016 40.079-11.016 26.308 0 30.287 16.216 30.287 26.008v2.446c-55.07-.304-88.416 18.971-88.416 56.296 0 22.637 16.825 44.362 46.808 44.362 19.579 0 35.183-8.262 44.054-19.887h.921l2.75 16.521h33.963c-1.838-9.18-2.45-22.334-2.45-35.796V201.4Zm-36.713 37.021c0 2.754 0 5.508-.917 8.258-3.67 10.709-14.379 20.5-29.675 20.5-11.933 0-21.416-6.729-21.416-21.416 0-22.638 25.391-28.146 52.008-27.842v20.5ZM527.754 73.517v84.133h-.612c-6.729-11.012-21.417-19.275-41.913-19.275-35.796 0-67.004 29.679-66.696 79.546 0 45.892 28.146 76.183 63.942 76.183 21.417 0 39.467-10.404 48.338-26.925h.612l1.838 23.559h33.345c-.612-10.096-1.221-26.617-1.221-41.917V73.517h-37.633Zm0 152.666c0 3.975-.304 7.65-1.225 11.013-3.671 16.217-17.133 26.617-32.429 26.617-23.863 0-37.325-19.884-37.325-47.421 0-27.534 13.462-48.95 37.629-48.95 17.134 0 29.067 11.933 32.433 26.312.613 3.059.917 7.034.917 10.096v22.333ZM611.887 113.9v27.842h-21.108v28.146h21.108v70.062c0 19.579 3.671 33.35 11.934 41.917 7.033 7.646 18.354 12.237 32.429 12.237 11.625 0 21.721-1.837 27.229-3.979l-.612-28.454c-4.284 1.225-7.954 1.533-14.684 1.533-14.379 0-19.275-9.179-19.275-27.537v-65.779h35.796v-28.146h-35.796V103.5l-37.021 10.4Zm426.403 176.838h37.63v-77.405c0-3.979.3-7.954.92-11.32 3.36-17.134 15.91-28.455 33.65-28.455 4.59 0 7.96.309 11.32.921v-35.183c-3.06-.613-5.2-.921-8.87-.921-16.22 0-33.66 10.708-41 31.513h-.92l-1.53-28.146h-32.43c.92 13.154 1.23 27.841 1.23 48.033v100.963Zm232.51-63.942c.62-3.367 1.23-8.875 1.23-15.908 0-32.738-15.91-72.513-64.25-72.513-47.73 0-72.81 38.858-72.81 80.158 0 45.588 28.45 75.263 76.79 75.263 21.41 0 39.16-3.975 52.01-9.483l-5.51-25.7c-11.62 3.979-23.86 6.733-41.3 6.733-24.17 0-44.98-11.629-45.89-38.55h99.73Zm-99.73-26.313c1.53-15.295 11.32-36.408 34.57-36.408 25.09 0 31.21 22.642 30.9 36.408h-65.47Zm113.51-58.741 55.37 148.996h37.02l56.91-148.996h-39.47l-23.86 75.566c-3.98 13.463-7.35 25.092-10.1 37.33h-.92c-2.75-12.238-5.81-24.171-10.1-37.33l-24.17-75.566h-40.68Zm294.62 85.054c.62-3.367 1.22-8.875 1.22-15.908 0-32.738-15.9-72.513-64.24-72.513-47.73 0-72.82 38.858-72.82 80.158 0 45.588 28.46 75.263 76.79 75.263 21.42 0 39.17-3.975 52.02-9.483l-5.51-25.7c-11.63 3.979-23.86 6.733-41.3 6.733-24.17 0-44.98-11.629-45.9-38.55h99.74Zm-99.74-26.313c1.54-15.295 11.32-36.408 34.58-36.408 25.08 0 31.2 22.642 30.9 36.408h-65.48Zm131.25 90.255h37.64v-87.809c0-4.283.6-8.871 1.83-11.929 3.98-11.321 14.38-22.029 29.37-22.029 20.5 0 28.45 16.217 28.45 37.633v84.134h37.63v-88.417c0-47.117-26.92-63.946-52.92-63.946-24.79 0-41 14.075-47.73 25.7h-.92l-1.83-22.333h-32.74c.61 12.85 1.22 27.229 1.22 44.362v104.634Z"/>
    <path fill="#004467" d="M0 280.946c11.321 7.037 33.958 13.158 55.987 13.158 52.93 0 78.017-28.758 78.017-62.108 0-29.675-17.133-47.729-52.929-61.188-27.538-10.708-39.467-18.054-39.467-33.962 0-12.238 10.096-24.779 33.959-24.779 19.275 0 33.654 5.812 41.304 9.787l8.871-30.287c-10.709-5.509-26.921-10.404-49.255-10.404-44.975 0-73.125 25.395-73.125 59.354 0 29.679 21.725 47.729 55.992 59.966 26.004 9.484 36.404 18.663 36.404 34.267 0 16.825-13.458 28.146-37.325 28.146-19.275 0-37.937-6.117-49.866-13.154L0 280.946ZM171.329 113.9v27.842h-21.112v28.146h21.112v70.062c0 19.579 3.671 33.35 11.934 41.917 7.033 7.646 18.354 12.237 32.429 12.237 11.625 0 21.72-1.837 27.229-3.979l-.613-28.454c-4.283 1.225-7.954 1.533-14.687 1.533-14.379 0-19.271-9.179-19.271-27.537v-65.779h35.796v-28.146H208.35V103.5l-37.021 10.4Zm216.917 87.5c0-32.733-13.771-63.025-61.496-63.025-23.558 0-42.833 6.425-53.846 13.158l7.342 24.475c10.096-6.425 25.391-11.016 40.079-11.016 26.308 0 30.287 16.216 30.287 26.008v2.446c-55.07-.304-88.416 18.971-88.416 56.296 0 22.637 16.825 44.362 46.808 44.362 19.579 0 35.183-8.262 44.054-19.887h.921l2.754 16.521h33.959c-1.834-9.18-2.446-22.334-2.446-35.796V201.4Zm-36.717 37.021c0 2.754 0 5.508-.917 8.258-3.67 10.709-14.379 20.5-29.675 20.5-11.933 0-21.416-6.729-21.416-21.416 0-22.638 25.391-28.146 52.008-27.842v20.5ZM527.754 73.517v84.133h-.608c-6.733-11.012-21.417-19.275-41.917-19.275-35.796 0-67 29.679-66.696 79.546 0 45.892 28.146 76.183 63.942 76.183 21.413 0 39.467-10.404 48.342-26.925h.612l1.834 23.559h33.35c-.613-10.096-1.226-26.617-1.226-41.917V73.517h-37.633Zm0 152.666c0 3.975-.304 7.65-1.221 11.013-3.67 16.217-17.133 26.617-32.433 26.617-23.863 0-37.325-19.884-37.325-47.421 0-27.534 13.462-48.95 37.633-48.95 17.134 0 29.063 11.933 32.429 26.312.613 3.059.917 7.034.917 10.096v22.333ZM611.887 113.9v27.842h-21.108v28.146h21.108v70.062c0 19.579 3.676 33.35 11.934 41.917 7.037 7.646 18.358 12.237 32.429 12.237 11.629 0 21.725-1.837 27.229-3.979l-.608-28.454c-4.284 1.225-7.958 1.533-14.688 1.533-14.379 0-19.275-9.179-19.275-27.537v-65.779h35.796v-28.146h-35.796V103.5l-37.021 10.4Zm426.403 176.838h37.63v-77.405c0-3.979.3-7.954.92-11.32 3.36-17.134 15.91-28.455 33.65-28.455 4.59 0 7.96.309 11.32.921v-35.183c-3.06-.613-5.2-.921-8.87-.921-16.21 0-33.65 10.708-41 31.513h-.91l-1.53-28.146h-32.43c.91 13.154 1.22 27.841 1.22 48.033v100.963Zm232.52-63.942c.61-3.367 1.22-8.875 1.22-15.908 0-32.738-15.91-72.513-64.25-72.513-47.73 0-72.81 38.858-72.81 80.158 0 45.588 28.45 75.263 76.79 75.263 21.41 0 39.16-3.975 52.01-9.483l-5.51-25.7c-11.62 3.979-23.86 6.733-41.3 6.733-24.17 0-44.97-11.629-45.89-38.55h99.74Zm-99.74-26.313c1.53-15.295 11.32-36.408 34.57-36.408 25.09 0 31.21 22.642 30.9 36.408h-65.47Zm113.51-58.741 55.37 148.996h37.02l56.91-148.996h-39.47l-23.86 75.566c-3.98 13.463-7.35 25.088-10.1 37.33h-.92c-2.75-12.242-5.81-24.171-10.09-37.33l-24.17-75.566h-40.69Zm294.62 85.054c.62-3.367 1.23-8.875 1.23-15.908 0-32.738-15.91-72.513-64.25-72.513-47.73 0-72.81 38.858-72.81 80.158 0 45.588 28.45 75.263 76.79 75.263 21.42 0 39.16-3.975 52.01-9.483l-5.51-25.7c-11.62 3.979-23.86 6.733-41.3 6.733-24.17 0-44.98-11.629-45.89-38.55h99.73Zm-99.73-26.313c1.53-15.295 11.32-36.408 34.57-36.408 25.08 0 31.21 22.642 30.9 36.408h-65.47Zm131.25 90.255h37.63v-87.809c0-4.283.61-8.871 1.83-11.929 3.98-11.321 14.38-22.029 29.37-22.029 20.5 0 28.45 16.217 28.45 37.633v84.134h37.64v-88.417c0-47.117-26.93-63.946-52.93-63.946-24.78 0-41 14.075-47.73 25.7h-.92l-1.83-22.333h-32.74c.61 12.85 1.23 27.229 1.23 44.362v104.634Z"/>
    <path fill="#ffc20d" d="M891.667 37.779c26.812 0 58.496 6.909 83.683 19.5V15.842C952.6 6.092 921.729 0 889.229 0c-76.367 0-157.204 41.029-157.204 149.083 0 94.242 62.962 145.021 154.767 145.021 23.562 0 52.808-4.875 85.712-13v-77.162c-3.387-.163-6.087.875-19.162-2.471-8.975-2.3-23.438-10.288-26.788-12.279l.05 63.071c-14.221 2.437-26 4.062-36.154 4.062-58.092 0-106.429-37.779-106.429-110.087 0-77.18 50.371-108.459 107.646-108.459Z"/>
    <path fill="#004467" d="M902.521 155.65c16.341 0 41.937 28.596 67.954 28.596 22.342 0 38.575-11.55 49.355-20.646l-15.73-35.942c-4.267 3.725-14.242 16.117-33.812 16.117-16.546 0-44.384-28.596-67.688-28.596-18.092 0-37.396 11.559-49.713 20.784l15.555 35.77c8.821-6.716 19.17-16.083 34.079-16.083Z"/>
  </g>
</svg>
